# xmcd
#
# Track frame offsets:
# 150
# 21452
# 46202
# 63208
# 82981
# 104137
# 123307
# 147054
# 169557
# 185336
# 199930
#
# Disc length: 2924 seconds
#
#
# Revision: 0
# Processed by: cddbd v1.5.1PL0 Copyright (c) Steve Scherf et al.
# Submitted via: FreeRIP 2.00 
#
DISCID=930b6a0b
DTITLE=Colin James - Bad Habits
DYEAR=1900
DGENRE=
TTITLE0=Saviour
TTITLE1=Freedom
TTITLE2=Standin On The Edge
TTITLE3=Real Stuff
TTITLE4=Better Days
TTITLE5=I Can't Hold Out
TTITLE6=Bad Habits
TTITLE7=Forty-Four
TTITLE8=Walking Blues
TTITLE9=Atlanta Moan
TTITLE10=Speechless
EXTD=
EXTT0=
EXTT1=
EXTT2=
EXTT3=
EXTT4=
EXTT5=
EXTT6=
EXTT7=
EXTT8=
EXTT9=
EXTT10=
PLAYORDER=
